<?xml version="1.0" encoding="UTF-8" standalone="no"?>
<!-- Created with Inkscape (http://www.inkscape.org/) -->

<svg
   width="84mm"
   height="52mm"
   viewBox="0 0 84 52"
   version="1.1"
   id="svg5"
   inkscape:version="1.1.2 (0a00cf5339, 2022-02-04)"
   sodipodi:docname="Proyecto-logo.svg"
   inkscape:export-filename="/home/sempere/Documentos/logotipo.png"
   inkscape:export-xdpi="96"
   inkscape:export-ydpi="96"
   xmlns:inkscape="http://www.inkscape.org/namespaces/inkscape"
   xmlns:sodipodi="http://sodipodi.sourceforge.net/DTD/sodipodi-0.dtd"
   xmlns="http://www.w3.org/2000/svg"
   xmlns:svg="http://www.w3.org/2000/svg">
  <sodipodi:namedview
     id="namedview7"
     pagecolor="#ffffff"
     bordercolor="#666666"
     borderopacity="1.0"
     inkscape:pageshadow="2"
     inkscape:pageopacity="0.0"
     inkscape:pagecheckerboard="0"
     inkscape:document-units="mm"
     showgrid="false"
     inkscape:zoom="1"
     inkscape:cx="20"
     inkscape:cy="402"
     inkscape:window-width="1920"
     inkscape:window-height="1052"
     inkscape:window-x="1920"
     inkscape:window-y="0"
     inkscape:window-maximized="1"
     inkscape:current-layer="layer2"
     width="45mm" />
  <defs
     id="defs2" />
  <g
     inkscape:groupmode="layer"
     id="layer2"
     inkscape:label="LOGO NUEVO"
     style="display:inline">
    <g
       id="g12735"
       transform="translate(-55.880133,-21.465952)">
      <g
         id="g24178"
         transform="translate(-25.30155,-58.910766)">
        <g
           id="g24174">
          <path
             style="fill:none;stroke:#000000;stroke-width:0.264583px;stroke-linecap:butt;stroke-linejoin:miter;stroke-opacity:1"
             d="m 108.37148,86.100096 c -26.539684,1.256623 -29.175992,38.692144 -0.0651,41.778754"
             id="path22441"
             sodipodi:nodetypes="cc" />
        </g>
      </g>
      <path
         style="fill:none;stroke:#000000;stroke-width:0.264583px;stroke-linecap:butt;stroke-linejoin:miter;stroke-opacity:1"
         d="m 83.06993,27.18933 -0.0651,41.778754"
         id="path24222" />
      <text
         xml:space="preserve"
         style="font-style:normal;font-weight:normal;font-size:14.2863px;line-height:1.25;font-family:sans-serif;fill:#000000;fill-opacity:1;stroke:none;stroke-width:0.357157"
         x="69.806526"
         y="44.06641"
         id="text27228"
         transform="scale(0.96854044,1.0324814)"><tspan
           sodipodi:role="line"
           id="tspan27226"
           style="stroke-width:0.357157"
           x="69.806526"
           y="44.06641">La</tspan></text>
      <text
         xml:space="preserve"
         style="font-style:normal;font-weight:normal;font-size:14.9008px;line-height:1.25;font-family:sans-serif;fill:#000000;fill-opacity:1;stroke:none;stroke-width:0.372522"
         x="87.487411"
         y="45.649658"
         id="text34114"
         transform="scale(0.99887797,1.0011233)"><tspan
           sodipodi:role="line"
           id="tspan34112"
           style="stroke-width:0.372522"
           x="87.487411"
           y="45.649658">Red</tspan></text>
      <text
         xml:space="preserve"
         style="font-style:normal;font-weight:normal;font-size:14.6167px;line-height:1.25;font-family:sans-serif;fill:#000000;fill-opacity:1;stroke:none;stroke-width:0.365419"
         x="124.78503"
         y="43.14571"
         id="text46257"
         transform="scale(0.94487915,1.0583364)"><tspan
           sodipodi:role="line"
           id="tspan46255"
           style="stroke-width:0.365419"
           x="124.78503"
           y="43.14571">de</tspan></text>
      <text
         xml:space="preserve"
         style="font-style:normal;font-weight:normal;font-size:14.6167px;line-height:1.25;font-family:sans-serif;display:inline;fill:#000000;fill-opacity:1;stroke:none;stroke-width:0.365419"
         x="85.564934"
         y="59.508877"
         id="text46257-0"
         transform="scale(0.94487915,1.0583364)"><tspan
           sodipodi:role="line"
           id="tspan46255-9"
           style="stroke-width:0.365419"
           x="85.564934"
           y="59.508877">nta</tspan></text>
      <text
         xml:space="preserve"
         style="font-style:normal;font-weight:normal;font-size:13.9685px;line-height:1.25;font-family:sans-serif;fill:#000000;fill-opacity:1;stroke:none;stroke-width:0.349214"
         x="73.744095"
         y="57.586193"
         id="text53189"
         transform="scale(0.91955073,1.0874876)"><tspan
           sodipodi:role="line"
           id="tspan53187"
           style="stroke-width:0.349214"
           x="73.744095"
           y="57.586193">T</tspan></text>
      <text
         xml:space="preserve"
         style="font-style:normal;font-variant:normal;font-weight:normal;font-stretch:normal;font-size:14.191px;line-height:1.25;font-family:'Noto Sans CJK KR';-inkscape-font-specification:'Noto Sans CJK KR';fill:#000000;fill-opacity:1;stroke:none;stroke-width:0.354776"
         x="82.50737"
         y="58.220997"
         id="text61029"
         transform="scale(0.92879089,1.0766686)"><tspan
           sodipodi:role="line"
           id="tspan61027"
           style="font-style:normal;font-variant:normal;font-weight:normal;font-stretch:normal;font-family:'Noto Sans CJK KR';-inkscape-font-specification:'Noto Sans CJK KR';stroke-width:0.354776"
           x="82.50737"
           y="58.220997">i</tspan></text>
      <path
         style="fill:none;stroke:#000000;stroke-width:0.264583px;stroke-linecap:butt;stroke-linejoin:miter;stroke-opacity:1"
         d="m 115.02451,61.436814 -5.42057,1.45872"
         id="path192" />
      <path
         style="fill:none;stroke:#000000;stroke-width:0.264583px;stroke-linecap:butt;stroke-linejoin:miter;stroke-opacity:1"
         d="m 109.60394,62.895534 c 1e-5,-0.0264 -1.5e-4,0.31531 -2.2e-4,0.47296 l 6.83473,1.60944 -0.0752,1.79344 -6.06496,-1.70421 -0.49012,0.233 -0.003,0.41996 6.76435,1.92965 c 0.58613,-0.60662 0.94529,-1.66517 0.41412,-2.72196 l 7.83043,-3.09041"
         id="path194"
         sodipodi:nodetypes="cccccccccc" />
      <path
         style="fill:none;stroke:#000000;stroke-width:0.264583px;stroke-linecap:butt;stroke-linejoin:miter;stroke-opacity:1"
         d="m 116.56952,67.649774 8.45354,-3.2958 c 0.4565,-1.25836 0.16704,-1.92197 -0.20899,-2.51657 l -4.71724,-0.78494"
         id="path196"
         sodipodi:nodetypes="cccc" />
      <path
         style="fill:none;stroke:#000000;stroke-width:0.264583px;stroke-linecap:butt;stroke-linejoin:miter;stroke-opacity:1"
         d="m 115.19486,60.686304 c 6.4e-4,-0.0515 -0.0135,1.08643 -0.0202,1.62964 l 1.3062,0.90539 2.22467,-0.0433 1.34166,-0.67146 -0.0455,-1.90641 -1.16555,-0.71342"
         id="path223"
         sodipodi:nodetypes="ccccccc" />
      <path
         style="fill:none;stroke:#000000;stroke-width:0.264583px;stroke-linecap:butt;stroke-linejoin:miter;stroke-opacity:1"
         d="m 118.83614,59.886744 c -0.76881,-0.025 -2.34394,-0.0763 -2.30644,-0.0751"
         id="path225"
         sodipodi:nodetypes="cc" />
      <path
         style="fill:none;stroke:#000000;stroke-width:0.264583px;stroke-linecap:butt;stroke-linejoin:miter;stroke-opacity:1"
         d="m 115.95399,60.221194 -0.75913,0.46511"
         id="path227"
         sodipodi:nodetypes="cc" />
      <path
         style="fill:none;stroke:#000000;stroke-width:0.264583px;stroke-linecap:butt;stroke-linejoin:miter;stroke-opacity:1"
         d="m 115.95399,60.221194 c -0.0156,0.0111 0.38381,-0.27303 0.57571,-0.40955"
         id="path229"
         sodipodi:nodetypes="cc" />
      <path
         style="fill:none;stroke:#000000;stroke-width:0.264583px;stroke-linecap:butt;stroke-linejoin:miter;stroke-opacity:1"
         d="m 116.53865,59.632994 c -0.11327,-0.0663 -0.40962,-0.23968 -0.33039,-0.19332"
         id="path381"
         sodipodi:nodetypes="cc" />
      <path
         style="fill:none;stroke:#000000;stroke-width:0.264583px;stroke-linecap:butt;stroke-linejoin:miter;stroke-opacity:1"
         d="m 116.20826,59.439674 0.007,-0.91344"
         id="path383" />
      <path
         style="fill:none;stroke:#000000;stroke-width:0.264583px;stroke-linecap:butt;stroke-linejoin:miter;stroke-opacity:1"
         d="m 116.21526,58.526234 c -0.0225,0.006 0.85541,-0.22596 1.50639,-0.24417"
         id="path385"
         sodipodi:nodetypes="cc" />
      <path
         style="fill:none;stroke:#000000;stroke-width:0.264583px;stroke-linecap:butt;stroke-linejoin:miter;stroke-opacity:1"
         d="m 118.18826,58.334574 c 0.32085,0.0732 0.58867,0.23916 0.74797,0.41597 l 0.0318,0.7246 c -0.0441,0.1372 -0.14394,0.4482 -0.13219,0.4116"
         id="path387"
         sodipodi:nodetypes="cccc" />
      <path
         style="fill:none;stroke:#000000;stroke-width:0.264583px;stroke-linecap:butt;stroke-linejoin:miter;stroke-opacity:1"
         d="m 117.89281,58.655564 2.32713,-4.68416 1.90107,-2.63672 2.38767,-1.84976"
         id="path389" />
      <path
         style="fill:none;stroke:#000000;stroke-width:0.264583px;stroke-linecap:butt;stroke-linejoin:miter;stroke-opacity:1"
         d="m 118.13622,56.984524 0.90041,-1.86313 1.17454,-1.78769 0.21788,-0.33162 0.38582,-0.40435 1.18909,-1.24618 c 0.88186,-0.57503 1.22995,-0.87956 2.06425,-1.53147"
         id="path391"
         sodipodi:nodetypes="ccccccc" />
      <path
         style="fill:none;stroke:#000000;stroke-width:0.264583px;stroke-linecap:butt;stroke-linejoin:miter;stroke-opacity:1"
         d="m 118.13622,56.984524 c 0.0465,0.0715 -0.34089,-0.52335 -0.51133,-0.78502 l -0.12511,-1.52071"
         id="path393"
         sodipodi:nodetypes="ccc" />
      <path
         style="fill:none;stroke:#000000;stroke-width:0.264583px;stroke-linecap:butt;stroke-linejoin:miter;stroke-opacity:1"
         d="m 117.48946,54.745484 0.73225,-1.84272"
         id="path395"
         sodipodi:nodetypes="cc" />
      <path
         style="fill:none;stroke:#000000;stroke-width:0.264583px;stroke-linecap:butt;stroke-linejoin:miter;stroke-opacity:1"
         d="m 118.20065,52.947074 c 0.0417,-0.17514 0.26792,0.71327 0.40973,1.21667"
         id="path397"
         sodipodi:nodetypes="cc" />
      <path
         style="fill:none;stroke:#000000;stroke-width:0.264583px;stroke-linecap:butt;stroke-linejoin:miter;stroke-opacity:1"
         d="m 118.61038,54.163744 0.0572,-1.67519 1.64695,-1.76188 0.48043,0.77845"
         id="path399" />
      <path
         style="fill:none;stroke:#000000;stroke-width:0.264583px;stroke-linecap:butt;stroke-linejoin:miter;stroke-opacity:1"
         d="m 120.79496,51.505124 c -0.0128,0.12662 0.0833,-0.82357 0.12501,-1.23536 l 2.04184,-1.18879 1.60005,-0.51875 1.95491,-0.22516 1.63815,0.0817 2.20513,0.54975 0.006,0.002"
         id="path401"
         sodipodi:nodetypes="cccccccc" />
      <path
         style="fill:none;stroke:#000000;stroke-width:0.264583px;stroke-linecap:butt;stroke-linejoin:miter;stroke-opacity:1"
         d="m 130.36647,48.970114 c 0.0128,-0.001 0.16405,-0.0238 -0.0871,0.0131 -0.93505,0.13734 -1.95195,0.14041 -2.71299,0.47889 -1.16745,0.41839 -1.29954,0.55226 -1.77513,0.90435 l -1.5683,0.11935 -1.06438,0.36027"
         id="path403"
         sodipodi:nodetypes="cscccc" />
      <path
         style="fill:none;stroke:#000000;stroke-width:0.264583px;stroke-linecap:butt;stroke-linejoin:miter;stroke-opacity:1"
         d="m 123.15855,50.846074 1.96763,-0.10572"
         id="path405" />
      <path
         style="fill:none;stroke:#000000;stroke-width:0.264583px;stroke-linecap:butt;stroke-linejoin:miter;stroke-opacity:1"
         d="m 125.12618,50.740354 c 0.0195,-0.0189 -1.01311,0.98177 -1.51966,1.47265 l -1.1878,2.08493 -0.76243,1.39293 -1.95085,-0.004 1.61059,0.42707 -1.19944,1.07986 -1.41967,0.13249"
         id="path407"
         sodipodi:nodetypes="cccccccc" />
      <path
         style="fill:none;stroke:#000000;stroke-width:0.264583px;stroke-linecap:butt;stroke-linejoin:miter;stroke-opacity:1"
         d="m 116.20555,65.889864 -6.37839,-1.68482"
         id="path12451" />
    </g>
  </g>
</svg>
